<svg width="673" height="672" viewBox="0 0 673 672" fill="none" xmlns="http://www.w3.org/2000/svg">
<path d="M361.013 369.091C361.013 357.617 351.681 348.284 340.206 348.284C328.728 348.284 319.386 357.617 319.386 369.091C319.386 380.57 328.728 389.911 340.206 389.911C351.68 389.907 361.013 380.569 361.013 369.091Z" fill="black"/>
<path d="M215.322 275.837C199.12 297.497 189.047 322.459 185.656 348.94C158.866 340.113 144.797 325.083 142.721 303.119C142.533 301.133 141.249 299.418 139.403 298.678C137.553 297.933 135.444 298.289 133.936 299.586C93.8962 334.172 56.9161 348.28 6.29529 348.28C3.35303 348.28 0.968262 350.665 0.968262 353.607C0.968262 356.549 3.35303 358.934 6.29529 358.934C55.9962 358.934 94.611 345.31 133.732 313.647C139.209 335.504 156.31 350.978 184.66 359.782C184.482 362.869 184.36 365.966 184.36 369.087C184.36 455.026 254.277 524.949 340.222 524.949C420.081 524.949 486.094 464.562 495.03 387.054C518.769 384.973 540.771 378.161 560.486 366.777C563.034 365.305 563.906 362.045 562.435 359.501C560.964 356.952 557.703 356.08 555.159 357.551C537.303 367.864 517.392 374.137 495.901 376.265C496.009 373.889 496.07 371.495 496.07 369.096C496.07 363.98 495.821 358.85 495.329 353.799C526.022 347.629 552.475 334.159 574.124 313.651C579.957 329.094 596.566 358.948 637.81 358.948C648.474 358.948 658.542 358.283 667.739 356.962C670.653 356.545 672.672 353.846 672.26 350.932C671.843 348.018 669.149 345.994 666.23 346.415C657.535 347.662 647.972 348.294 637.815 348.294C591.371 348.294 582.207 304.479 581.841 302.623C581.467 300.66 580.019 299.072 578.098 298.514C576.177 297.957 574.106 298.519 572.733 299.971C551.683 322.268 525.188 336.787 493.924 343.216C486.212 297.002 458.214 256.976 417.546 233.761C427.938 227.618 433.967 223.06 434.281 222.821C436.624 221.04 437.078 217.695 435.298 215.353C433.518 213.01 430.173 212.556 427.83 214.336C427.746 214.401 419.734 220.455 406.268 227.937C398.749 224.409 390.981 221.504 383.015 219.232C409.102 209.735 428.747 197.512 437.541 191.533C444.916 203.485 466.398 229.895 512.303 229.895C542.462 229.895 572.128 220.843 600.82 212.086C624.921 204.73 647.69 197.782 666.974 197.782C669.917 197.782 672.301 195.397 672.301 192.455C672.301 189.513 669.917 187.128 666.974 187.128C646.097 187.128 622.592 194.301 597.709 201.895C569.766 210.422 540.873 219.24 512.303 219.24C461.446 219.24 444.911 183.117 444.237 181.594C443.585 180.09 442.278 178.975 440.695 178.558C439.111 178.146 437.424 178.483 436.117 179.476C435.803 179.71 404.778 203.066 361.923 214.765C354.802 213.767 347.506 213.247 340.216 213.247C324.873 213.247 309.72 215.491 295.145 219.886C245.844 211.893 227.374 175.648 226.615 174.107C225.94 172.73 224.708 171.708 223.232 171.305C221.756 170.903 220.173 171.156 218.894 171.999C163.426 208.613 93.796 216.119 6.29947 216.119C3.35722 216.119 0.972444 218.504 0.972444 221.446C0.972444 224.388 3.35722 226.773 6.29947 226.773C93.2802 226.773 163.181 219.389 220.021 183.927C226.482 194.037 243.892 216.217 277.119 226.572C266.971 231.093 257.314 236.724 248.328 243.292C233.294 235.674 223.276 225.634 217.416 218.358C215.575 216.067 212.22 215.702 209.925 217.547C207.633 219.393 207.268 222.748 209.114 225.039C215.059 232.428 224.866 242.369 239.207 250.489C230.352 258.018 222.307 266.512 215.327 275.841L215.322 275.837ZM221.23 369.086C221.23 303.475 274.608 250.097 340.219 250.097C405.83 250.097 459.208 303.475 459.208 369.086C459.208 434.697 405.83 488.076 340.219 488.076C274.608 488.071 221.23 434.697 221.23 369.086V369.086Z" fill="black"/>
<path d="M314.284 340.305C315.32 341.795 316.978 342.601 318.67 342.601C319.701 342.601 320.741 342.301 321.659 341.683C327.136 337.963 333.555 335.995 340.217 335.995C346.819 335.995 353.214 337.963 358.714 341.687C361.137 343.323 364.416 342.709 366.08 340.315L400.698 290.431C401.504 289.27 401.818 287.826 401.56 286.435C401.302 285.044 400.506 283.807 399.339 283.005C381.891 271.002 361.445 264.658 340.217 264.658C318.979 264.658 298.528 271.002 281.08 283.005C279.914 283.807 279.113 285.044 278.86 286.435C278.607 287.827 278.916 289.265 279.722 290.431L314.284 340.305Z" fill="black"/>
<path d="M295.202 463.352C295.924 463.694 296.711 463.872 297.493 463.872C298.098 463.872 298.702 463.769 299.283 463.563C300.618 463.09 301.705 462.101 302.31 460.822L328.232 405.945C329.479 403.307 328.368 400.154 325.744 398.875C314.242 393.281 307.097 381.862 307.097 369.086C307.097 368.22 307.125 367.451 307.177 366.739C307.393 363.82 305.219 361.272 302.3 361.033L241.828 356.052C240.418 355.931 239.017 356.385 237.94 357.303C236.857 358.222 236.192 359.529 236.079 360.939C234.407 382.027 239.134 402.904 249.75 421.317C260.372 439.711 276.09 454.249 295.202 463.353L295.202 463.352Z" fill="black"/>
<path d="M373.235 366.728C373.287 367.45 373.315 368.241 373.315 369.085C373.315 381.861 366.17 393.279 354.668 398.873C352.044 400.148 350.934 403.301 352.18 405.943L378.103 460.821C378.707 462.1 379.799 463.088 381.129 463.561C381.71 463.768 382.315 463.871 382.919 463.871C383.702 463.871 384.489 463.697 385.21 463.355C404.317 454.261 420.035 439.723 430.665 421.315C441.277 402.94 446.009 382.062 444.35 360.942C444.238 359.527 443.573 358.22 442.49 357.301C441.408 356.383 440.007 355.929 438.602 356.05L378.116 361.031C375.197 361.27 373.018 363.814 373.234 366.728L373.235 366.728Z" fill="black"/>
<path d="M6.29201 144.095C72.5867 144.095 119.181 132.537 156.086 106.74C162.139 118.556 179.755 141.087 226.199 140.295C276.143 139.466 329.404 107.002 346.163 95.9221C352.765 107.537 372.494 130.869 424.486 131.267C424.945 131.272 425.395 131.272 425.854 131.272C480.412 131.267 527.7 106.497 542.776 97.6887C548.192 106.656 561.681 124.235 586.822 130.213C619.393 137.953 666.821 120.524 668.822 119.779C671.581 118.753 672.982 115.684 671.956 112.929C670.93 110.17 667.857 108.769 665.107 109.795C664.647 109.964 618.691 126.845 589.286 119.849C561.029 113.131 549.795 88.3279 549.691 88.0928C549.068 86.6544 547.841 85.5628 546.337 85.113C544.833 84.6632 543.207 84.8975 541.895 85.7502C541.357 86.1015 487.655 120.617 425.825 120.617C425.408 120.617 424.982 120.617 424.565 120.612C365.035 120.158 353.861 87.7641 353.426 86.4243C352.925 84.7892 351.66 83.4914 350.039 82.9433C348.413 82.3951 346.628 82.6622 345.236 83.6601C344.609 84.1099 281.636 128.727 226.022 129.645C225.305 129.659 224.597 129.664 223.895 129.664C173.051 129.664 163.948 98.4328 163.587 97.1158C163.138 95.3917 161.863 94.0048 160.177 93.4146C158.495 92.8289 156.63 93.1241 155.21 94.2017C119.406 121.338 73.4734 133.44 6.29237 133.44C3.35011 133.44 0.965339 135.825 0.965339 138.767C0.960654 141.709 3.35011 144.094 6.29237 144.094L6.29201 144.095Z" fill="black"/>
<path d="M531.341 119.902C530.928 120.169 489.816 146.569 438.429 153.237C435.51 153.616 433.453 156.287 433.833 159.206C434.179 161.89 436.47 163.849 439.108 163.849C439.338 163.849 439.567 163.835 439.802 163.802C493.681 156.812 535.407 129.97 537.155 128.832C539.619 127.225 540.317 123.927 538.715 121.462C537.108 118.998 533.805 118.3 531.341 119.902L531.341 119.902Z" fill="black"/>
<path d="M318.77 128.035C304.719 136.468 282.924 148.139 258.898 155.865C256.097 156.764 254.555 159.768 255.459 162.569C256.186 164.827 258.28 166.266 260.529 166.266C261.068 166.266 261.621 166.181 262.164 166.008C287.155 157.973 309.723 145.89 324.252 137.171C326.778 135.658 327.593 132.383 326.08 129.862C324.566 127.341 321.291 126.521 318.771 128.035L318.77 128.035Z" fill="black"/>
<path d="M153 131.237C152.251 128.408 149.355 126.712 146.511 127.447C143.663 128.187 141.953 131.092 142.693 133.941C142.895 134.718 147.875 153.075 169.854 164.872C170.655 165.303 171.517 165.509 172.37 165.509C174.272 165.509 176.108 164.493 177.069 162.698C178.46 160.107 177.486 156.874 174.895 155.483C157.246 146.01 153.183 131.898 153.001 131.237L153 131.237Z" fill="black"/>
<path d="M665.11 637.374C664.646 637.542 618.704 654.423 589.294 647.428C561.034 640.695 549.803 615.906 549.695 615.668C549.072 614.229 547.844 613.142 546.34 612.688C544.836 612.233 543.211 612.468 541.899 613.325C541.36 613.677 487.542 648.179 425.819 648.179C425.402 648.179 424.981 648.179 424.564 648.174C365.038 647.734 353.86 615.34 353.425 614C352.923 612.365 351.658 611.068 350.037 610.519C348.416 609.971 346.626 610.238 345.235 611.236C344.607 611.686 281.634 656.288 226.02 657.221C225.313 657.236 224.615 657.24 223.926 657.24C173.054 657.24 163.946 626.009 163.59 624.692C163.145 622.968 161.866 621.581 160.179 620.995C158.497 620.41 156.632 620.705 155.213 621.782C119.405 648.909 73.4758 661.007 6.29481 661.007C3.35256 661.007 0.967773 663.391 0.967773 666.334C0.967773 669.276 3.35256 671.661 6.29481 671.661C72.5859 671.661 119.179 660.102 156.088 634.32C162.142 646.131 179.777 668.633 226.202 667.879C276.146 667.04 329.407 634.581 346.166 623.501C352.768 635.111 372.492 658.448 424.489 658.832C424.948 658.837 425.397 658.837 425.857 658.837C480.415 658.832 527.703 634.066 542.779 625.268C548.195 634.23 561.684 651.804 586.825 657.797C619.396 665.537 666.824 648.108 668.825 647.363C671.584 646.337 672.985 643.268 671.959 640.513C670.933 637.754 667.859 636.353 665.109 637.374L665.11 637.374Z" fill="black"/>
<path d="M604.708 232.119C599.681 233.595 594.579 235.155 589.406 236.734C561.464 245.261 532.57 254.084 503.991 254.084C494.854 254.084 486.191 252.889 478.255 250.532C475.434 249.698 472.469 251.305 471.63 254.126C470.791 256.946 472.403 259.912 475.224 260.751C484.149 263.398 493.829 264.738 503.99 264.738C534.158 264.738 563.825 255.681 592.517 246.924C597.652 245.359 602.721 243.808 607.711 242.342C610.531 241.513 612.152 238.552 611.319 235.727C610.494 232.906 607.533 231.294 604.708 232.119L604.708 232.119Z" fill="black"/>
<path d="M6.29189 580.942C86.1086 580.942 147.054 565.106 197.357 531.19C199.737 536.438 204.015 544.005 211.221 551.548C222.807 563.673 244.537 578.131 282.248 578.131C343.98 578.131 407.91 540.444 424.486 529.959C434.919 541.568 470.471 575.307 531.167 575.307C570.887 575.307 602.765 560.629 630.895 547.683C644.069 541.621 656.508 535.891 668.511 532.255C671.327 531.403 672.92 528.428 672.067 525.612C671.21 522.796 668.235 521.203 665.424 522.056C652.722 525.902 639.96 531.782 626.443 538.004C599.307 550.495 568.553 564.654 531.17 564.654C464.893 564.654 430.11 520.154 429.773 519.713C428.063 517.465 424.896 516.935 422.549 518.519C421.823 519.011 349.123 567.478 282.243 567.478C218.112 567.478 205.565 523.452 205.068 521.596C204.628 519.9 203.382 518.528 201.732 517.933C200.083 517.333 198.247 517.581 196.818 518.602C146.659 554.346 87.8926 570.29 6.29237 570.29C3.35011 570.29 0.965339 572.674 0.965339 575.617C0.960654 578.559 3.35011 580.944 6.29237 580.944L6.29189 580.942Z" fill="black"/>
<path d="M442.321 568.372C439.866 566.737 436.563 567.407 434.932 569.857C433.302 572.307 433.967 575.615 436.418 577.246C453.158 588.382 480.969 601.66 518.412 601.66C521.355 601.66 523.739 599.275 523.739 596.333C523.739 593.39 521.355 591.006 518.412 591.006C483.635 591.006 457.838 578.697 442.321 568.372L442.321 568.372Z" fill="black"/>
<path d="M399.67 560.768C381.055 570.026 352.635 582.18 322.927 587.492C320.032 588.012 318.102 590.776 318.622 593.676C319.086 596.258 321.33 598.066 323.86 598.066C324.174 598.066 324.488 598.038 324.806 597.982C355.757 592.444 385.179 579.878 404.417 570.307C407.054 568.995 408.127 565.8 406.815 563.162C405.499 560.534 402.304 559.461 399.671 560.768L399.67 560.768Z" fill="black"/>
<path d="M172.923 562.507C155.551 571.039 137.371 577.561 117.357 582.452C114.499 583.15 112.747 586.031 113.445 588.894C114.04 591.325 116.218 592.961 118.617 592.961C119.034 592.961 119.461 592.909 119.887 592.806C140.661 587.732 159.546 580.948 177.623 572.074C180.265 570.777 181.357 567.586 180.059 564.943C178.756 562.301 175.561 561.209 172.923 562.507L172.923 562.507Z" fill="black"/>
<path d="M6.29201 63.3378C86.1087 63.3378 147.054 47.5021 197.357 13.5865C199.737 18.8339 204.015 26.401 211.221 33.9392C222.807 46.064 244.537 60.5132 282.248 60.5132C343.981 60.5132 407.91 22.8351 424.486 12.3548C434.92 23.9646 470.471 57.703 531.167 57.703C570.887 57.703 602.765 43.0295 630.895 30.0795C644.069 24.0169 656.508 18.287 668.507 14.6516C671.323 13.7989 672.916 10.8238 672.063 8.00799C671.205 5.19215 668.23 3.59923 665.419 4.452C652.718 8.29849 639.956 14.1784 626.439 20.4005C599.302 32.8911 568.548 47.05 531.165 47.05C464.889 47.05 430.106 2.55454 429.769 2.10957C428.059 -0.139316 424.891 -0.664055 422.549 0.914852C421.823 1.40211 349.123 49.8565 282.243 49.8565C218.112 49.8565 205.565 5.8396 205.068 3.98413C204.628 2.28805 203.377 0.915331 201.732 0.320307C200.083 -0.279395 198.247 -0.0263924 196.818 0.990282C146.659 36.7385 87.8926 52.6822 6.29237 52.6822C3.35011 52.6822 0.965339 55.067 0.965339 58.0092C0.960654 60.9515 3.35011 63.3409 6.29237 63.3409L6.29201 63.3378Z" fill="black"/>
<path d="M107.256 353.331C84.0363 368.422 58.417 377.408 31.1126 380.042C28.1844 380.323 26.0385 382.928 26.3197 385.856C26.5867 388.611 28.9058 390.672 31.6186 390.672C31.792 390.672 31.9607 390.663 32.1387 390.649C61.1679 387.852 88.3979 378.303 113.066 362.266C115.535 360.664 116.233 357.361 114.631 354.896C113.024 352.427 109.721 351.729 107.257 353.332L107.256 353.331Z" fill="black"/>
</svg>
