<svg width="1122" height="672" viewBox="0 0 1122 672" fill="none" xmlns="http://www.w3.org/2000/svg">
<path d="M654.522 603.241C654.984 603.267 655.437 603.276 655.89 603.276C670.206 603.267 681.902 591.842 682.25 577.533C682.607 563.217 671.486 551.233 657.187 550.511C650.185 550.084 643.306 552.531 638.15 557.286C630.226 564.453 627.395 575.679 630.983 585.738C634.563 595.796 643.854 602.702 654.523 603.242L654.522 603.241ZM655.855 562.956C656.09 562.956 656.334 562.956 656.56 562.965V562.974C664.232 563.305 670.215 569.74 669.988 577.421C669.753 585.102 663.387 591.163 655.707 591.032C648.026 590.893 641.878 584.606 641.921 576.925C641.956 569.244 648.165 563.017 655.846 562.957L655.855 562.956Z" fill="black"/>
<path d="M1000.54 620.719C1001 620.745 1001.46 620.754 1001.91 620.754C1016.23 620.737 1027.91 609.32 1028.27 595.012C1028.62 580.703 1017.51 568.721 1003.22 567.989C996.205 567.537 989.317 569.992 984.17 574.773C976.246 581.932 973.415 593.157 977.003 603.216C980.591 613.274 989.874 620.188 1000.54 620.72L1000.54 620.719ZM992.548 584.031V584.039C995.091 581.714 998.417 580.434 1001.86 580.443C1002.09 580.443 1002.34 580.443 1002.58 580.451C1009.22 580.774 1014.71 585.755 1015.69 592.33C1016.66 598.913 1012.86 605.27 1006.59 607.508C1000.32 609.747 993.349 607.247 989.935 601.534C986.522 595.822 987.61 588.498 992.548 584.039V584.031Z" fill="black"/>
<path d="M814.39 423.599C814.477 421.944 813.902 420.324 812.796 419.097C811.681 417.869 810.131 417.129 808.477 417.05L748.119 414.002C746.438 413.793 744.749 414.333 743.486 415.465C742.232 416.597 741.535 418.226 741.57 419.915C741.483 421.57 742.058 423.19 743.164 424.417C744.278 425.645 745.829 426.386 747.483 426.464L807.841 429.512L808.155 429.521H808.163C811.481 429.521 814.224 426.917 814.39 423.599L814.39 423.599Z" fill="black"/>
<path d="M805.695 452.09C809.074 452.081 811.834 449.391 811.922 446.003C812.009 442.624 809.387 439.794 806.009 439.62L767.082 437.66V437.651C765.401 437.469 763.729 438.009 762.475 439.132C761.221 440.264 760.516 441.884 760.533 443.564C760.446 445.219 761.021 446.839 762.135 448.067C763.241 449.295 764.791 450.035 766.446 450.113L805.373 452.073L805.695 452.09Z" fill="black"/>
<path d="M258.387 605.849C259.267 607.678 260.974 608.967 262.976 609.307C263.325 609.368 263.673 609.394 264.022 609.394C265.676 609.394 267.27 608.741 268.437 607.565L284.034 591.933L303.601 599.187C305.239 599.797 307.059 599.684 308.617 598.883C310.176 598.09 311.326 596.671 311.787 594.981L316.298 578.461L334.839 575.927H334.847C336.824 575.666 338.548 574.473 339.498 572.714C340.447 570.963 340.499 568.864 339.637 567.062L238.036 354.131L339.421 305.756C341.415 304.807 342.756 302.873 342.956 300.67C343.148 298.476 342.164 296.333 340.37 295.045L222.51 210.895L246.919 199.252C248.94 198.285 250.289 196.308 250.455 194.07C250.62 191.841 249.575 189.69 247.711 188.436L127.491 107.457L153.102 95.2385C155.14 94.2632 156.498 92.269 156.646 90.0134C156.803 87.7579 155.714 85.5981 153.825 84.3704L25.6718 0.969933C23.7908 -0.188288 21.4483 -0.318915 19.4539 0.630304C17.4596 1.58824 16.0837 3.48655 15.8138 5.68114L0.0341053 157.757C-0.201026 160.004 0.791731 162.199 2.638 163.505C4.4842 164.811 6.88761 165.011 8.92547 164.036L34.5542 151.818L21.8834 296.214C21.6831 298.443 22.702 300.612 24.5482 301.883C26.3857 303.163 28.7717 303.355 30.7922 302.388L55.177 290.745L46.4773 435.288C46.338 437.491 47.383 439.607 49.2119 440.835C51.0406 442.072 53.3919 442.246 55.3861 441.297L156.778 392.913L258.387 605.849ZM310.516 566.653H310.525C308.67 566.966 307.068 568.133 306.206 569.805L279.166 512.417C277.694 509.299 273.984 507.967 270.866 509.43C267.749 510.902 266.408 514.62 267.88 517.738L299.222 584.253L284.627 578.845H284.618C282.328 577.992 279.759 578.558 278.035 580.282L265.851 592.483L168.047 387.537L226.76 359.523L324.687 564.712L310.516 566.653ZM65.5316 275.386L65.5403 275.378C63.7028 274.141 61.3515 273.967 59.3574 274.925L35.278 286.42L47.9488 142.024C48.1404 139.794 47.1302 137.626 45.2841 136.355C43.4466 135.074 41.0692 134.883 39.0487 135.849L13.6028 147.989L27.2055 16.8668L137.691 88.7727L112.271 100.912V100.904C110.242 101.861 108.892 103.838 108.727 106.068C108.553 108.306 109.607 110.457 111.47 111.711L231.691 192.69L207.587 204.185V204.194C205.602 205.143 204.26 207.076 204.069 209.279C203.869 211.474 204.853 213.616 206.647 214.896L324.506 299.055L59.5687 425.475L68.277 280.932C68.4077 278.729 67.3626 276.613 65.5338 275.376L65.5316 275.386Z" fill="black"/>
<path d="M194.783 386.547C193.286 387.244 192.127 388.515 191.57 390.074C191.004 391.633 191.091 393.348 191.796 394.846L234.406 485.3C235.878 488.418 239.596 489.75 242.714 488.287C245.832 486.815 247.164 483.097 245.701 479.979L203.091 389.525V389.534C202.386 388.036 201.114 386.878 199.556 386.312C197.997 385.754 196.281 385.833 194.784 386.547L194.783 386.547Z" fill="black"/>
<path d="M780.615 473.514L805.573 474.786L805.886 474.795C809.265 474.795 812.026 472.095 812.113 468.716C812.2 465.337 809.579 462.498 806.2 462.324L781.242 461.052C779.561 460.843 777.872 461.366 776.609 462.507C775.355 463.639 774.658 465.276 774.702 466.965C774.615 468.62 775.19 470.24 776.296 471.468C777.41 472.696 778.96 473.427 780.615 473.514L780.615 473.514Z" fill="black"/>
<path d="M1115.33 658.328H1039.15C1043.59 655.777 1047.76 652.772 1051.59 649.368C1069.57 633.135 1078.49 609.161 1075.48 585.126C1072.48 561.1 1057.93 540.051 1036.51 528.757C1015.09 517.453 989.505 517.323 967.978 528.408C946.442 539.494 931.682 560.395 928.442 584.385L729.906 574.371C729.436 560.803 725.256 547.618 717.819 536.262C710.391 524.897 699.984 515.797 687.731 509.936L687.636 509.866L687.47 509.822C673.502 503.204 657.817 501.14 642.613 503.901C627.408 506.67 613.449 514.124 602.703 525.236L603.948 500.626L655.554 473.368C659.063 474.665 662.773 475.345 666.509 475.388C674.8 475.406 682.785 472.288 688.872 466.671C694.959 461.054 698.695 453.347 699.348 445.092C699.992 436.827 697.502 428.633 692.364 422.136C687.217 415.639 679.815 411.32 671.638 410.048C663.452 408.777 655.083 410.64 648.211 415.273C641.349 419.898 636.481 426.952 634.591 435.016L606.515 449.933L608.666 407.497L647.287 384.368L741.235 389.114L741.261 389.122H741.296L824.34 393.32L1024.63 403.43L1054.49 404.946L1047.16 509.378L1047.15 509.369C1034.71 502.577 1020.9 498.667 1006.74 497.944C1005.05 497.717 1003.36 498.249 1002.1 499.381C1000.83 500.522 1000.14 502.159 1000.19 503.857C1000.1 505.503 1000.68 507.122 1001.78 508.35C1002.9 509.587 1004.45 510.318 1006.1 510.397C1025.34 511.503 1043.61 519.184 1057.85 532.159C1072.09 545.135 1081.44 562.612 1084.32 581.658C1084.57 583.304 1085.46 584.775 1086.79 585.759C1088.13 586.743 1089.8 587.153 1091.44 586.909C1093.07 586.656 1094.54 585.768 1095.53 584.427C1096.5 583.095 1096.91 581.422 1096.66 579.785C1092.82 554.783 1079.36 532.28 1059.14 517.076L1067.39 399.459V399.468C1067.5 397.787 1066.94 396.141 1065.83 394.878C1064.72 393.633 1063.15 392.875 1061.48 392.797L1031.49 391.273L1041.19 199.137C1041.28 197.483 1040.7 195.863 1039.59 194.635C1038.48 193.407 1036.93 192.667 1035.28 192.589L1012.57 191.439L1013.36 176.017C1013.44 174.362 1012.87 172.742 1011.76 171.514C1010.65 170.286 1009.1 169.546 1007.44 169.468L981.448 168.153C979.785 168.014 978.13 168.571 976.893 169.694C975.648 170.818 974.934 172.402 974.899 174.075L974.115 189.497L890.802 185.291C887.963 184.96 885.307 186.763 884.575 189.532L820.238 380.613L776.538 378.41L782.137 267.586C782.233 265.844 781.58 264.137 780.361 262.892L753.261 235.348H753.252C750.944 232.997 747.2 232.849 744.709 235.009L724.009 252.991C722.746 254.097 721.971 255.656 721.875 257.328C721.771 259 722.346 260.646 723.469 261.892L740.477 280.702L735.661 376.337L646.016 371.809V371.818C644.779 371.704 643.534 372.018 642.489 372.688L599.382 398.5C597.588 399.562 596.456 401.461 596.36 403.533L593.669 456.759L518.698 496.6V415.9C518.698 414.245 518.036 412.651 516.869 411.484C515.702 410.317 514.109 409.656 512.454 409.656H420.457C417.008 409.656 414.213 412.451 414.213 415.9C414.213 419.348 417.008 422.144 420.457 422.144H442.159C459.61 468.804 451.215 513.704 416.773 555.671C399.931 575.727 379.919 592.882 357.521 606.458H341.367C337.918 606.458 335.123 609.254 335.123 612.702C335.123 616.151 337.918 618.946 341.367 618.946H512.452C514.107 618.946 515.701 618.285 516.868 617.118C518.035 615.942 518.696 614.357 518.696 612.702V545.665L591.106 507.41L589.243 544.263C582.72 557.57 580.334 572.532 582.398 587.205C584.462 601.879 590.88 615.594 600.816 626.585C601.939 627.821 603.141 628.953 604.326 630.112L594.233 635.728L558.581 628.962H558.589C556.769 628.648 554.906 629.145 553.477 630.32C552.049 631.505 551.231 633.255 551.231 635.11V658.327H347.609V632.036C347.601 629.719 346.321 627.586 344.265 626.514C342.21 625.435 339.728 625.583 337.812 626.906L319.429 639.612L307.812 630.25V630.242C305.887 628.692 303.231 628.43 301.037 629.562L284.874 637.94L268.693 629.562H268.685C266.752 628.57 264.435 628.648 262.58 629.78C260.717 630.912 259.584 632.933 259.584 635.11V658.326H82.8203C79.3804 658.326 76.585 661.122 76.585 664.561C76.585 668.01 79.3804 670.806 82.8203 670.806H262.694C264.584 672.094 267.066 672.094 268.956 670.806H338.231C340.121 672.094 342.602 672.094 344.501 670.806H1115.33C1118.77 670.806 1121.56 668.01 1121.56 664.561C1121.56 661.122 1118.77 658.326 1115.33 658.326L1115.33 658.328ZM888.026 218.43L1027.37 225.467L1019.03 390.649L867.814 383.021L890.77 356.415L904.547 368.572V368.581C907.133 370.863 911.078 370.61 913.36 368.032C915.641 365.446 915.397 361.492 912.811 359.211L875.792 326.537C873.206 324.256 869.261 324.499 866.979 327.086C864.698 329.672 864.942 333.617 867.528 335.899L881.409 348.152L852.017 382.219L833.198 381.269L888.026 218.43ZM987.059 180.933L1000.59 181.612L1000.13 190.799L986.597 190.12L987.059 180.933ZM979.717 202.277H979.735L1005.71 203.592H1005.72L1028.42 204.741L1028 212.997L892.162 206.143L894.905 198.001L979.717 202.277ZM751.475 274.243L737.002 258.237L748.462 248.274L769.528 269.688L764.076 377.768L748.122 376.967L753.078 278.743H753.069C753.156 277.089 752.581 275.469 751.475 274.241L751.475 274.243ZM666.507 422.139C674.754 422.139 682.183 427.103 685.335 434.723C688.488 442.334 686.746 451.095 680.911 456.929C675.085 462.755 666.324 464.497 658.713 461.344C651.093 458.192 646.13 450.764 646.13 442.525C646.138 431.265 655.256 422.148 666.507 422.139ZM506.212 606.454H380.025C415.189 580.939 487.4 515.077 455.623 422.139H506.209L506.212 606.454ZM518.7 510.714L518.726 510.705L601.7 466.615L601.692 466.624C602.249 466.441 602.78 466.162 603.242 465.805L634.348 449.276H634.357C635.663 455.503 638.763 461.224 643.266 465.727L595.874 490.762C595.43 490.928 595.012 491.146 594.629 491.424L518.699 531.535L518.7 510.714ZM873.927 658.322H855.386V655.335L871.166 653.054L873.935 653.62L873.927 658.322ZM886.414 656.006C887.172 656.11 887.947 656.075 888.696 655.901L905.39 650.929L918.444 654.639V658.322H886.415L886.414 656.006ZM926.396 643.91L907.063 638.423H907.054C905.914 638.092 904.703 638.101 903.571 638.45L886.633 643.5L872.612 640.6C871.907 640.461 871.184 640.444 870.47 640.539L848.255 643.735C845.181 644.18 842.899 646.81 842.899 649.918V658.322H639.269V649.091C643.493 650.066 647.786 650.685 652.114 650.92C653.403 650.99 654.683 651.016 655.963 651.016C664.062 650.955 672.1 649.561 679.746 646.888C680.086 646.862 680.417 646.801 680.748 646.714C680.878 646.67 680.965 646.566 681.087 646.505C693.837 641.95 705.071 633.964 713.578 623.435C722.085 612.906 727.52 600.236 729.306 586.816L927.824 596.839H927.815C928.703 622.267 942.558 645.466 964.521 658.32H930.925V649.917C930.925 647.13 929.079 644.674 926.388 643.908L926.396 643.91ZM975.493 538.86L978.637 547.681H978.628C979.517 550.163 981.868 551.818 984.506 551.827C985.221 551.827 985.935 551.705 986.605 551.461C988.164 550.904 989.435 549.745 990.149 548.256C990.855 546.758 990.942 545.043 990.385 543.484L987.232 534.627C992.004 533.382 996.916 532.72 1001.84 532.659C1002.89 532.659 1003.94 532.685 1004.99 532.729C1010.95 533.121 1016.83 534.375 1022.43 536.456L1018.43 544.904V544.912C1016.95 548.03 1018.29 551.748 1021.4 553.22C1024.52 554.701 1028.24 553.368 1029.72 550.251L1033.72 541.821V541.812C1044.19 547.76 1052.48 556.921 1057.34 567.956L1047.69 571.396C1044.83 572.415 1043.12 575.341 1043.64 578.337C1044.15 581.324 1046.75 583.509 1049.79 583.509C1050.5 583.518 1051.21 583.388 1051.88 583.144L1061.52 579.712C1064.74 591.321 1064.11 603.66 1059.75 614.894L1050.5 610.505C1047.39 609.024 1043.67 610.339 1042.19 613.457C1040.71 616.566 1042.03 620.284 1045.14 621.765L1054.39 626.163H1054.4C1048.46 636.656 1039.29 644.938 1028.25 649.79L1025.12 640.994H1025.12C1023.97 637.755 1020.4 636.057 1017.15 637.215C1013.9 638.373 1012.21 641.943 1013.37 645.192L1016.49 653.978V653.97C1010.72 655.485 1004.75 656.147 998.773 655.947C992.807 655.555 986.929 654.283 981.338 652.184L985.327 643.763C986.041 642.266 986.128 640.541 985.571 638.983C985.013 637.415 983.864 636.144 982.357 635.429C980.859 634.724 979.135 634.637 977.576 635.203C976.018 635.76 974.746 636.919 974.041 638.425L970.061 646.82C959.82 640.585 951.625 631.519 946.461 620.703L956.066 617.281C957.634 616.732 958.914 615.582 959.619 614.085C960.334 612.587 960.421 610.862 959.863 609.304C959.306 607.736 958.156 606.465 956.65 605.759C955.152 605.045 953.437 604.967 951.869 605.533L942.255 608.956H942.264C939.015 597.356 939.634 585.008 944.023 573.792L953.262 578.172C954.76 578.886 956.484 578.982 958.043 578.425C959.611 577.867 960.891 576.709 961.605 575.211C962.31 573.705 962.397 571.989 961.831 570.422C961.265 568.863 960.107 567.583 958.601 566.886L949.37 562.514V562.506C955.596 552.256 964.671 544.035 975.496 538.863L975.493 538.86ZM600.403 603.242L610.043 599.81C613.291 598.661 614.989 595.09 613.84 591.851C612.682 588.603 609.12 586.904 605.872 588.054L596.214 591.485V591.494C592.992 579.877 593.619 567.528 598.008 556.303L607.248 560.693L607.239 560.684C610.348 562.164 614.075 560.849 615.555 557.74C617.036 554.623 615.712 550.904 612.603 549.424L603.355 545.035V545.026C609.582 534.776 618.665 526.564 629.481 521.384L632.625 530.205C633.513 532.696 635.864 534.35 638.503 534.35C639.217 534.359 639.922 534.229 640.602 533.985C642.161 533.427 643.432 532.278 644.137 530.78C644.851 529.291 644.938 527.575 644.381 526.016L641.22 517.16C645.992 515.915 650.904 515.253 655.841 515.192C656.878 515.192 657.923 515.218 658.976 515.261H658.968C664.942 515.653 670.811 516.916 676.411 519.015L672.413 527.436L672.422 527.445C670.942 530.562 672.274 534.281 675.392 535.752C678.509 537.233 682.236 535.901 683.708 532.783L687.688 524.379C697.929 530.615 706.124 539.689 711.288 550.496L701.674 553.919H701.683C698.818 554.947 697.111 557.872 697.633 560.868C698.147 563.855 700.742 566.041 703.773 566.041C704.496 566.041 705.201 565.919 705.872 565.675L715.486 562.253C718.725 573.852 718.116 586.201 713.735 597.425L704.496 593.036C701.387 591.573 697.686 592.897 696.205 595.997C694.733 599.097 696.04 602.807 699.131 604.296L708.388 608.694C702.449 619.179 693.279 627.461 682.238 632.294L679.111 623.525C678.563 621.957 677.413 620.677 675.915 619.963C674.418 619.249 672.693 619.162 671.135 619.719C669.567 620.276 668.296 621.435 667.581 622.933C666.876 624.439 666.798 626.155 667.364 627.722L670.49 636.474H670.481C664.699 637.981 658.725 638.651 652.751 638.46C646.794 638.076 640.916 636.814 635.317 634.732L639.322 626.294C640.028 624.796 640.115 623.08 639.558 621.522C639 619.954 637.842 618.683 636.344 617.977C634.846 617.263 633.131 617.185 631.572 617.742C630.013 618.3 628.742 619.458 628.028 620.956L624.031 629.385V629.377C613.546 623.437 605.255 614.268 600.404 603.242L600.403 603.242ZM598.304 647.769L613.788 639.147L626.798 646.071V658.323H594.769V648.448C595.988 648.579 597.225 648.343 598.304 647.76L598.304 647.769ZM563.74 642.587L582.28 646.175V658.332L563.74 658.323V642.587ZM322.723 652.532L335.15 643.946V658.323H319.249V653.551C320.485 653.56 321.696 653.211 322.723 652.532V652.532ZM272.092 645.356L282.029 650.503C283.831 651.435 285.965 651.435 287.759 650.503L303.181 642.517L306.769 645.409V658.323H272.092L272.092 645.356Z" fill="black"/>
</svg>
