<svg width="687" height="672" viewBox="0 0 687 672" fill="none" xmlns="http://www.w3.org/2000/svg">
<path d="M679.471 479.159C647.149 479.159 631.42 473.576 614.758 467.654C597.638 461.571 579.941 455.29 545.05 455.29C510.159 455.29 492.462 461.576 475.342 467.654C458.681 473.576 442.946 479.159 410.624 479.159C378.312 479.159 362.577 473.576 345.926 467.654C328.806 461.571 311.114 455.29 276.223 455.29C241.338 455.29 223.639 461.576 206.521 467.654C189.865 473.576 174.135 479.159 141.823 479.159C109.521 479.159 93.7928 473.576 77.1461 467.654C60.0368 461.571 42.3435 455.29 7.4688 455.29C3.34373 455.29 0 458.628 0 462.758C0 466.883 3.34373 470.227 7.4688 470.227C39.7661 470.227 55.4955 475.81 72.1408 481.732C89.2501 487.816 106.943 494.097 141.818 494.097C176.703 494.097 194.397 487.81 211.515 481.732C228.171 475.81 243.901 470.227 276.213 470.227C308.53 470.227 324.259 475.81 340.915 481.732C358.035 487.816 375.727 494.097 410.618 494.097C445.514 494.097 463.211 487.81 480.331 481.732C496.987 475.81 512.722 470.227 545.039 470.227C577.362 470.227 593.091 475.81 609.753 481.732C626.873 487.816 644.57 494.097 679.461 494.097C683.586 494.097 686.93 490.758 686.93 486.628C686.94 482.498 683.596 479.159 679.471 479.159H679.471Z" fill="black"/>
<path d="M679.471 568.093C647.149 568.093 631.42 562.509 614.758 556.587C597.638 550.504 579.941 544.223 545.05 544.223C510.159 544.223 492.462 550.509 475.342 556.587C458.681 562.509 442.946 568.093 410.624 568.093C378.312 568.093 362.577 562.509 345.926 556.587C328.806 550.504 311.114 544.223 276.223 544.223C241.338 544.223 223.639 550.509 206.521 556.587C189.865 562.509 174.135 568.093 141.823 568.093C109.521 568.093 93.7928 562.509 77.1461 556.587C60.0368 550.504 42.3435 544.223 7.4688 544.223C3.34373 544.223 0 547.561 0 551.692C0 555.817 3.34373 559.16 7.4688 559.16C39.7661 559.16 55.4955 564.744 72.1408 570.666C89.2501 576.749 106.943 583.03 141.818 583.03C176.703 583.03 194.397 576.744 211.515 570.666C228.171 564.744 243.901 559.16 276.213 559.16C308.53 559.16 324.259 564.744 340.915 570.666C358.035 576.749 375.727 583.03 410.618 583.03C445.514 583.03 463.211 576.744 480.331 570.666C496.987 564.744 512.722 559.16 545.039 559.16C577.362 559.16 593.091 564.744 609.753 570.666C626.873 576.749 644.57 583.03 679.461 583.03C683.586 583.03 686.93 579.692 686.93 575.561C686.94 571.431 683.596 568.093 679.471 568.093H679.471Z" fill="black"/>
<path d="M679.471 657.026C647.149 657.026 631.42 651.443 614.758 645.521C597.638 639.437 579.941 633.156 545.05 633.156C510.159 633.156 492.462 639.443 475.342 645.521C458.681 651.443 442.946 657.026 410.624 657.026C378.312 657.026 362.577 651.443 345.926 645.521C328.806 639.437 311.114 633.156 276.223 633.156C241.338 633.156 223.639 639.443 206.521 645.521C189.865 651.443 174.135 657.026 141.823 657.026C109.521 657.026 93.7928 651.443 77.1461 645.521C60.0368 639.437 42.3435 633.156 7.4688 633.156C3.34373 633.156 0 636.495 0 640.625C0 644.75 3.34373 648.094 7.4688 648.094C39.7661 648.094 55.4955 653.677 72.1408 659.599C89.2501 665.682 106.943 671.964 141.818 671.964C176.703 671.964 194.397 665.677 211.515 659.599C228.171 653.677 243.901 648.094 276.213 648.094C308.53 648.094 324.259 653.677 340.915 659.599C358.035 665.682 375.727 671.964 410.618 671.964C445.514 671.964 463.211 665.677 480.331 659.599C496.987 653.677 512.722 648.094 545.039 648.094C577.362 648.094 593.091 653.677 609.753 659.599C626.873 665.682 644.57 671.964 679.461 671.964C683.586 671.964 686.93 668.625 686.93 664.495C686.94 660.365 683.596 657.026 679.471 657.026H679.471Z" fill="black"/>
<path d="M7.47152 409.493H679.472C683.597 409.493 686.94 406.154 686.94 402.024C686.94 397.899 683.597 394.555 679.472 394.555H673.196C674.774 386.17 675.347 377.508 674.873 368.691C672.242 319.404 635.201 277.456 586.79 268.936C555.331 263.426 523.905 271.671 499.629 291.65C491.207 286.634 481.697 284.009 471.795 284.009C441.561 284.009 416.967 308.64 416.967 338.921C416.967 339.65 416.983 340.385 417.014 341.114C417.129 343.937 415.842 346.671 413.561 348.447L411.9 349.765C409.061 352.082 404.827 352.062 401.108 349.728C389.514 342.452 375.592 340.254 361.884 343.588C338.644 349.239 323.04 370.181 323.889 394.552L219.54 394.562L210.134 278.515C216.894 279.995 223.827 280.76 230.8 280.76C284.399 280.76 328.003 237.156 328.003 183.557C328.003 148.427 308.591 115.781 278.06 98.7241C278.967 94.4429 279.425 90.0991 279.425 85.7241C279.425 51.1041 251.258 22.9375 216.633 22.9375C211.706 22.9375 206.805 23.5208 202.013 24.6667C185.054 8.72934 163.111 0 139.737 0C90.2675 0 49.8728 39.6093 48.6168 88.7813C21.4861 109.032 5.40879 140.901 5.40879 174.823C5.40879 234.016 53.5648 282.177 112.763 282.177C118.967 282.177 125.081 281.656 131.07 280.625L121.778 394.563H7.47172C3.34665 394.563 0.00292969 397.901 0.00292969 402.031C0.00292969 406.156 3.34665 409.495 7.47172 409.495L7.47152 409.493ZM365.418 358.107C377.903 355.076 387.402 358.748 393.164 362.378C402.247 368.086 413.565 367.68 421.366 361.326L422.746 360.227C428.819 355.503 432.257 348.123 431.939 340.503L431.908 338.92C431.908 316.878 449.804 298.941 471.804 298.941C480.481 298.941 488.752 301.727 495.721 306.993C498.596 309.165 502.617 308.978 505.273 306.535C526.633 286.936 555.409 278.566 584.211 283.655C625.851 290.978 657.711 327.082 659.971 369.499C660.429 378.098 659.757 386.504 657.971 394.562H338.851C338.845 394.426 338.835 394.291 338.83 394.155C338.179 376.901 349.111 362.077 365.423 358.109L365.418 358.107ZM136.765 394.561L146.369 276.801C156.26 273.53 165.666 268.79 174.369 262.655C180.718 267.186 187.583 270.916 194.781 273.796L204.573 394.561L136.765 394.561ZM112.765 267.243C61.8009 267.243 20.3435 225.785 20.3435 174.822C20.3435 144.467 35.3075 116.019 60.3702 98.7286C62.4223 97.3119 63.6306 94.9682 63.5942 92.463C63.589 92.3224 63.5317 91.2911 63.5213 91.1453C63.5213 49.124 97.7146 14.932 139.735 14.932C160.527 14.932 179.969 23.2028 194.48 38.208C196.454 40.2496 199.407 40.9632 202.11 40.135C206.824 38.635 211.709 37.8746 216.632 37.8746C243.022 37.8746 264.492 59.344 264.492 85.7293C264.492 90.672 263.721 95.5886 262.2 100.333C261.064 103.891 262.731 107.74 266.101 109.344C294.632 122.948 313.065 152.078 313.065 183.557C313.065 228.917 276.158 265.828 230.8 265.828C211.784 265.828 193.909 259.489 179.102 247.51C176.399 245.318 172.534 245.286 169.79 247.443C153.331 260.396 133.607 267.245 112.768 267.245L112.765 267.243Z" fill="black"/>
</svg>
